<svg width="192" height="192" viewBox="0 0 192 192" fill="none" xmlns="http://www.w3.org/2000/svg">
  <rect width="192" height="192" rx="32" fill="#0A0E27"/>
  <path d="M96 48C85.5066 48 77 56.5066 77 67V96H67C56.5066 96 48 104.507 48 115C48 125.493 56.5066 134 67 134H77V144H115V134H125C135.493 134 144 125.493 144 115C144 104.507 135.493 96 125 96H115V67C115 56.5066 106.493 48 96 48ZM96 58C100.971 58 105 62.0294 105 67V106H125C129.971 106 134 110.029 134 115C134 119.971 129.971 124 125 124H105V134H87V124H67C62.0294 124 58 119.971 58 115C58 110.029 62.0294 106 67 106H87V67C87 62.0294 91.0294 58 96 58Z" fill="#00D1FF"/>
  <circle cx="96" cy="67" r="8" fill="#00E5A0"/>
  <circle cx="67" cy="115" r="8" fill="#FF6B35"/>
  <circle cx="125" cy="115" r="8" fill="#FFB627"/>
</svg>
