<svg width="512" height="512" viewBox="0 0 512 512" fill="none" xmlns="http://www.w3.org/2000/svg">
  <rect width="512" height="512" rx="85" fill="#0A0E27"/>
  <path d="M256 128C228.018 128 205.333 150.685 205.333 178.667V256H178.667C150.685 256 128 278.685 128 306.667C128 334.648 150.685 357.333 178.667 357.333H205.333V384H306.667V357.333H333.333C361.315 357.333 384 334.648 384 306.667C384 278.685 361.315 256 333.333 256H306.667V178.667C306.667 150.685 283.982 128 256 128ZM256 154.667C266.588 154.667 280 168.079 280 178.667V282.667H333.333C343.921 282.667 357.333 296.079 357.333 306.667C357.333 317.255 343.921 330.667 333.333 330.667H280V357.333H232V330.667H178.667C168.079 330.667 154.667 317.255 154.667 306.667C154.667 296.079 168.079 282.667 178.667 282.667H232V178.667C232 168.079 245.412 154.667 256 154.667Z" fill="#00D1FF"/>
  <circle cx="256" cy="178.667" r="21.333" fill="#00E5A0"/>
  <circle cx="178.667" cy="306.667" r="21.333" fill="#FF6B35"/>
  <circle cx="333.333" cy="306.667" r="21.333" fill="#FFB627"/>
  <path d="M256 410C264.837 410 272 402.837 272 394C272 385.163 264.837 378 256 378C247.163 378 240 385.163 240 394C240 402.837 247.163 410 256 410Z" fill="#00D1FF" opacity="0.6"/>
</svg>
